<!-- Mykadoo Primary Logo - Full Color -->
<svg width="200" height="48" viewBox="0 0 200 48" fill="none" xmlns="http://www.w3.org/2000/svg">
  <!-- Gift Icon -->
  <g id="gift-icon">
    <!-- Gift Box Base -->
    <rect x="4" y="20" width="32" height="24" rx="2" fill="#FF6B6B"/>
    <!-- Gift Ribbon Vertical -->
    <rect x="18" y="20" width="4" height="24" fill="#339AF0"/>
    <!-- Gift Ribbon Horizontal -->
    <rect x="4" y="28" width="32" height="4" fill="#339AF0"/>
    <!-- Gift Box Top Lid -->
    <rect x="2" y="16" width="36" height="6" rx="1" fill="#FA5252"/>
    <!-- Bow Left -->
    <path d="M12 16C12 16 8 12 6 14C4 16 8 18 12 16Z" fill="#FF6B6B"/>
    <!-- Bow Right -->
    <path d="M28 16C28 16 32 12 34 14C36 16 32 18 28 16Z" fill="#FF6B6B"/>
    <!-- Bow Center -->
    <circle cx="20" cy="14" r="3" fill="#FA5252"/>
    <!-- Sparkle Top Left -->
    <circle cx="8" cy="10" r="1.5" fill="#FFD43B" opacity="0.8"/>
    <!-- Sparkle Top Right -->
    <circle cx="32" cy="8" r="1" fill="#FFD43B" opacity="0.8"/>
    <!-- Sparkle Bottom -->
    <circle cx="2" cy="32" r="1" fill="#FFD43B" opacity="0.6"/>
  </g>

  <!-- Wordmark -->
  <g id="wordmark" fill="#343A40">
    <!-- M -->
    <path d="M52 14 L52 38 L56 38 L56 22 L62 32 L66 22 L66 38 L70 38 L70 14 L64 14 L64 28 L58 14 L52 14Z"/>
    <!-- Y -->
    <path d="M76 14 L82 26 L88 14 L92 14 L84 30 L84 38 L80 38 L80 30 L72 14 L76 14Z"/>
    <!-- K -->
    <path d="M98 14 L98 38 L102 38 L102 28 L108 38 L113 38 L106 26 L113 14 L108 14 L102 24 L102 14 L98 14Z"/>
    <!-- A -->
    <path d="M118 38 L122 26 L130 26 L134 38 L138 38 L128 14 L124 14 L114 38 L118 38Z M126 17 L129 24 L123 24 L126 17Z"/>
    <!-- D -->
    <path d="M144 14 L144 38 L152 38 C156 38 160 35 160 26 C160 17 156 14 152 14 L144 14Z M148 18 L152 18 C154 18 156 20 156 26 C156 32 154 34 152 34 L148 34 L148 18Z"/>
    <!-- O -->
    <path d="M166 14 C162 14 158 17 158 26 C158 35 162 38 166 38 C170 38 174 35 174 26 C174 17 170 14 166 14Z M166 18 C168 18 170 20 170 26 C170 32 168 34 166 34 C164 34 162 32 162 26 C162 20 164 18 166 18Z"/>
    <!-- O -->
    <path d="M180 14 C176 14 172 17 172 26 C172 35 176 38 180 38 C184 38 188 35 188 26 C188 17 184 14 180 14Z M180 18 C182 18 184 20 184 26 C184 32 182 34 180 34 C178 34 176 32 176 26 C176 20 178 18 180 18Z"/>
  </g>

  <!-- Tagline (optional, can be removed for smaller sizes) -->
  <text x="52" y="46" font-family="Inter, sans-serif" font-size="8" font-weight="400" fill="#868E96">
    Find the Perfect Gift
  </text>
</svg>
