<!-- Mykadoo Icon - Color Version -->
<svg width="48" height="48" viewBox="0 0 48 48" fill="none" xmlns="http://www.w3.org/2000/svg">
  <!-- Gift Box Base -->
  <rect x="8" y="22" width="32" height="22" rx="2" fill="#FF6B6B"/>

  <!-- Gift Ribbon Vertical -->
  <rect x="22" y="22" width="4" height="22" fill="#339AF0"/>

  <!-- Gift Ribbon Horizontal -->
  <rect x="8" y="30" width="32" height="4" fill="#339AF0"/>

  <!-- Gift Box Top Lid -->
  <rect x="6" y="18" width="36" height="6" rx="1" fill="#FA5252"/>

  <!-- Bow Left Loop -->
  <path d="M16 18C16 18 10 14 8 16C6 18 10 20 16 18Z" fill="#FF6B6B"/>

  <!-- Bow Right Loop -->
  <path d="M32 18C32 18 38 14 40 16C42 18 38 20 32 18Z" fill="#FF6B6B"/>

  <!-- Bow Center Knot -->
  <circle cx="24" cy="16" r="3" fill="#FA5252"/>

  <!-- Sparkles -->
  <circle cx="10" cy="10" r="1.5" fill="#FFD43B" opacity="0.8"/>
  <circle cx="38" cy="12" r="1.2" fill="#FFD43B" opacity="0.8"/>
  <circle cx="6" cy="28" r="1" fill="#FFD43B" opacity="0.6"/>
  <circle cx="42" cy="36" r="1" fill="#FFD43B" opacity="0.6"/>
</svg>
